<svg width="65" height="59" viewBox="0 0 65 59" fill="none" xmlns="http://www.w3.org/2000/svg">
<rect x="16.75" y="0.75" width="30.5" height="57.5" rx="4.25" stroke="#383376" stroke-width="1.5" stroke-linejoin="round"/>
<mask id="path-2-inside-1_267_356" fill="white">
<rect y="4" width="12" height="8" rx="1"/>
</mask>
<rect y="4" width="12" height="8" rx="1" stroke="#383376" stroke-width="3" mask="url(#path-2-inside-1_267_356)"/>
<line x1="4" y1="8.25" x2="8" y2="8.25" stroke="#383376" stroke-width="1.5"/>
<line x1="16" y1="5.25" x2="34" y2="5.25" stroke="#383376" stroke-width="1.5"/>
<line x1="28" y1="50.25" x2="48" y2="50.25" stroke="#383376" stroke-width="1.5"/>
<rect x="38.75" y="4.75" width="22.5" height="10.5" fill="#F5F5F5" stroke="#383376" stroke-width="1.5"/>
<line x1="41" y1="8.25" x2="45" y2="8.25" stroke="#383376" stroke-width="1.5"/>
<line x1="48" y1="8.25" x2="57" y2="8.25" stroke="#383376" stroke-width="1.5"/>
<line x1="41" y1="12.25" x2="58" y2="12.25" stroke="#383376" stroke-width="1.5"/>
<rect x="0.75" y="45.75" width="23.5" height="7.5" stroke="#383376" stroke-width="1.5"/>
<line x1="5" y1="49.25" x2="9" y2="49.25" stroke="#383376" stroke-width="1.5"/>
<line x1="12" y1="49.25" x2="21" y2="49.25" stroke="#383376" stroke-width="1.5"/>
<circle cx="32" cy="55" r="1" fill="#383376"/>
<path d="M41.9558 34.4485C31.3532 37.3792 37.7908 44.3546 33.5 46.5" stroke="#383376" stroke-width="1.5"/>
<path d="M47 41.4999C45.5 46.5003 40.2444 47.8483 33.5 46.5001" stroke="#383376" stroke-width="1.5" stroke-linecap="round"/>
<circle cx="20" cy="25" r="12.25" fill="#F5F5F5" stroke="#383376" stroke-width="1.5"/>
<circle cx="19.5" cy="22.5" r="4.75" stroke="#383376" stroke-width="1.5"/>
<path fill-rule="evenodd" clip-rule="evenodd" d="M12 35H13.0009C13.1787 31.0652 16.2792 28 19.9928 28C23.7065 28 26.807 31.0652 26.9848 35H27.9857C27.8066 30.5501 24.2966 27 19.9928 27C15.6891 27 12.1791 30.5501 12 35Z" fill="#383376"/>
<line x1="20.75" y1="9" x2="20.75" y2="15" stroke="#383376" stroke-width="1.5"/>
<line x1="10" y1="25.75" x2="4" y2="25.75" stroke="#383376" stroke-width="1.5"/>
<line x1="36" y1="25.75" x2="30" y2="25.75" stroke="#383376" stroke-width="1.5"/>
<line x1="20.75" y1="35" x2="20.75" y2="41" stroke="#383376" stroke-width="1.5"/>
<line x1="42.1022" y1="33.9443" x2="57.9443" y2="20.8978" stroke="#383376" stroke-width="1.5" stroke-linecap="square"/>
<line x1="48" y1="38.9393" x2="61.9393" y2="25" stroke="#383376" stroke-width="1.5" stroke-linecap="square"/>
<line x1="42.0607" y1="34" x2="47" y2="38.9393" stroke="#383376" stroke-width="1.5" stroke-linecap="round"/>
<path d="M58.5 20.5003C63 18.5 65 20.5003 62.5 24.5003" stroke="#383376" stroke-width="1.5" stroke-linecap="round"/>
<path d="M47 37.0168V31.5061L47.5 31.1044V37.1802L47 37.0168Z" stroke="#F5F5F5"/>
</svg>
