<svg width="80" height="80" viewBox="0 0 80 80" fill="none" xmlns="http://www.w3.org/2000/svg">
<circle cx="40" cy="40" r="38.5" stroke="#383376" stroke-width="3"/>
<path fill-rule="evenodd" clip-rule="evenodd" d="M71.8722 64.0001C68.2926 58.0001 55.5111 55.0001 40.0001 55.0001C24.2822 55.0001 12.2912 58.0807 7.86051 64.0001H12.0505C13.1958 63.0991 14.6996 62.2476 16.6206 61.4668C22.1098 59.2357 30.173 58.0001 40.0001 58.0001C49.8477 58.0001 58.2647 59.2408 63.7299 61.5191C65.6018 62.2994 66.9928 63.1463 67.9691 64.0001H71.8722Z" fill="#383376"/>
<path fill-rule="evenodd" clip-rule="evenodd" d="M8 16C11.5796 22 24.3611 25 39.8721 25C55.59 25 67.581 21.9195 72.0117 16H67.8216C66.6764 16.901 65.1726 17.7525 63.2516 18.5333C57.7624 20.7645 49.6992 22 39.8721 22C30.0244 22 21.6075 20.7594 16.1423 18.481C14.2704 17.7007 12.8794 16.8539 11.9031 16H8Z" fill="#383376"/>
<ellipse cx="40" cy="39.5" rx="27" ry="37.5" stroke="#383376" stroke-width="3"/>
<line x1="1" y1="40.5" x2="79" y2="40.5" stroke="#383376" stroke-width="3"/>
<circle cx="40" cy="25" r="16" fill="#F5F5F5" stroke="#383376" stroke-width="2"/>
<circle cx="40" cy="25" r="10" fill="#F5F5F5" stroke="#383376" stroke-width="2"/>
<rect x="37" y="41" width="6" height="4" fill="#F5F5F5" stroke="#383376" stroke-width="2"/>
<rect x="36" y="45" width="8" height="5" fill="#F5F5F5" stroke="#383376" stroke-width="2"/>
<rect x="36" y="50" width="8" height="14" fill="#F5F5F5" stroke="#383376" stroke-width="2"/>
<path d="M36 64H44V70C44 70 41.6683 71.5 40 71.5C38.3317 71.5 36 70 36 70V64Z" fill="#F5F5F5" stroke="#383376" stroke-width="2"/>
</svg>
